<?xml version="1.0" standalone="no"?>
<!DOCTYPE svg PUBLIC "-//W3C//DTD SVG 20010904//EN"
 "http://www.w3.org/TR/2001/REC-SVG-20010904/DTD/svg10.dtd">
<svg version="1.0" xmlns="http://www.w3.org/2000/svg"
 width="260.000000pt" height="260.000000pt" viewBox="0 0 260.000000 260.000000"
 preserveAspectRatio="xMidYMid meet">
<metadata>
Created by potrace 1.11, written by Peter Selinger 2001-2013
</metadata>
<g transform="translate(0.000000,260.000000) scale(0.100000,-0.100000)"
fill="#000000" stroke="none">
<path d="M763 1841 c-57 -5 -87 -12 -101 -24 -26 -24 -44 -94 -31 -119 20 -36
97 -50 135 -24 13 10 47 14 101 14 l81 0 -11 -29 c-6 -16 -16 -29 -22 -29 -28
0 -58 -50 -62 -102 -3 -29 -9 -65 -15 -80 -13 -35 -3 -77 27 -112 14 -16 25
-35 25 -42 0 -26 52 -74 93 -86 23 -6 52 -20 63 -30 19 -17 20 -23 10 -51 -6
-18 -26 -46 -44 -64 -21 -20 -32 -41 -32 -59 0 -20 -13 -41 -41 -70 -55 -56
-60 -100 -22 -169 45 -80 136 -124 162 -78 9 17 10 17 28 0 24 -21 47 -22 63
-2 17 20 137 20 164 0 14 -11 24 -12 38 -4 11 6 29 8 40 6 11 -3 43 1 71 10
36 11 71 13 115 9 35 -4 80 -2 102 4 55 15 100 55 100 89 0 32 -50 115 -79
130 -71 38 -125 -34 -66 -89 19 -18 22 -26 14 -37 -17 -20 -69 -17 -69 5 -1
59 -56 142 -96 142 -17 0 -23 7 -28 38 -4 20 -9 44 -11 52 -4 12 10 16 76 18
45 2 93 8 108 13 45 17 149 132 156 173 4 20 11 39 16 42 15 9 10 58 -9 95
-10 20 -17 40 -15 46 6 16 101 -18 106 -38 7 -27 67 -59 110 -59 79 0 98 38
51 101 -14 19 -32 49 -40 66 -19 44 -56 67 -107 64 -23 -1 -59 6 -80 16 -29
12 -45 14 -65 7 -23 -9 -31 -6 -53 17 -14 16 -38 31 -53 35 -15 3 -40 19 -56
35 -21 21 -38 29 -65 29 -21 0 -55 11 -81 26 -34 20 -55 25 -91 23 -27 -2 -65
2 -85 9 -31 11 -41 11 -65 -2 -19 -9 -34 -11 -44 -5 -19 12 -86 11 -109 -1
-15 -8 -20 -4 -30 20 -18 44 -44 61 -97 65 -26 1 -59 5 -73 7 -14 3 -62 2
-107 -1z m180 -35 c44 -1 80 -35 75 -70 -3 -20 -8 -21 -124 -18 -99 2 -123 0
-134 -13 -15 -19 -70 -20 -94 -2 -16 12 -17 18 -7 50 7 20 18 40 24 44 17 11
145 22 187 15 19 -2 52 -5 73 -6z m352 -80 c14 -10 36 -12 72 -9 46 5 58 2 93
-21 26 -17 53 -26 79 -26 33 0 44 -5 63 -30 12 -17 31 -30 43 -30 31 0 65 -28
65 -54 0 -13 7 -29 16 -37 22 -18 44 -64 44 -93 0 -14 7 -41 17 -60 15 -33 15
-38 -2 -93 -14 -45 -31 -71 -76 -117 l-58 -58 -88 -9 c-62 -7 -96 -6 -115 2
-15 6 -42 9 -60 7 -21 -4 -50 3 -83 18 -27 13 -60 24 -73 24 -13 0 -35 6 -50
14 -15 7 -43 16 -63 20 -20 3 -46 17 -58 30 -12 13 -39 26 -61 30 -40 6 -73
37 -86 79 -3 12 -15 30 -25 40 -25 23 -35 66 -20 88 6 10 11 41 11 69 0 41 5
56 25 75 13 14 29 25 34 25 6 0 13 11 17 25 4 17 26 35 70 60 67 36 119 44
153 23 14 -9 23 -8 42 5 29 21 49 21 74 3z m547 -182 c18 -9 44 -14 62 -11 39
6 82 -16 92 -45 4 -13 20 -39 35 -59 35 -44 37 -65 7 -72 -30 -8 -105 26 -113
52 -4 13 -21 25 -48 33 -47 13 -127 72 -127 93 0 27 47 32 92 9z m-678 -409
c11 -8 31 -15 45 -15 14 0 51 -12 81 -26 40 -19 65 -24 93 -21 43 6 50 -3 62
-87 6 -39 12 -49 34 -58 49 -19 56 -25 73 -59 20 -41 23 -89 6 -110 -15 -19
-131 -54 -146 -45 -14 8 -4 41 19 62 23 20 25 54 4 54 -8 0 -15 -6 -15 -14 0
-7 -6 -19 -14 -25 -8 -7 -18 -25 -21 -41 -16 -73 -68 -45 -71 38 -3 64 -3 64
-14 57 -5 -3 -10 -31 -10 -61 l0 -54 -51 0 c-52 0 -54 4 -21 42 14 17 8 43 -9
32 -5 -3 -21 -28 -34 -55 -14 -27 -29 -49 -34 -49 -13 0 -45 47 -64 93 -17 40
-44 53 -33 15 4 -13 9 -42 11 -65 3 -38 1 -43 -17 -43 -48 0 -118 85 -118 144
0 16 17 45 45 76 32 36 45 59 45 80 0 21 9 36 30 52 18 13 34 37 41 60 8 32
14 38 37 38 15 0 36 -7 46 -15z m576 -267 c36 -50 36 -83 0 -110 -30 -22 -88
-33 -124 -24 -38 9 -32 26 9 26 25 0 44 8 60 25 31 30 31 40 0 69 -33 30 -33
56 0 56 18 0 34 -12 55 -42z"/>
<path d="M1045 1685 c-43 -15 -89 -60 -79 -77 4 -5 17 1 33 15 37 35 64 47
105 47 43 0 90 -37 108 -85 14 -39 28 -46 28 -14 0 37 -39 87 -84 108 -49 24
-58 25 -111 6z"/>
<path d="M1050 1555 c0 -18 5 -25 19 -25 26 0 36 17 21 35 -19 23 -40 18 -40
-10z"/>
<path d="M1553 1524 c-18 -9 -33 -23 -33 -30 0 -18 5 -18 35 2 64 42 145 4
145 -68 0 -27 4 -38 15 -38 10 0 15 10 15 29 0 47 -17 79 -52 101 -40 24 -82
25 -125 4z"/>
<path d="M925 1499 c-3 -4 2 -6 10 -5 21 3 28 13 10 13 -9 0 -18 -4 -20 -8z"/>
<path d="M978 1476 c-10 -7 -15 -16 -12 -19 4 -3 13 1 21 9 20 19 13 26 -9 10z"/>
<path d="M1031 1453 c-7 -8 -11 -16 -8 -19 2 -2 10 2 17 11 17 20 9 27 -9 8z"/>
<path d="M1198 1428 c-38 -13 -35 -29 10 -54 43 -25 182 -38 189 -17 7 21 -39
53 -77 53 -20 0 -40 4 -45 9 -17 16 -49 19 -77 9z"/>
<path d="M1614 1425 c-4 -9 -2 -21 4 -27 15 -15 44 -1 40 19 -4 23 -36 29 -44
8z"/>
<path d="M1550 1300 c0 -5 5 -10 11 -10 5 0 7 5 4 10 -3 6 -8 10 -11 10 -2 0
-4 -4 -4 -10z"/>
<path d="M1600 1290 c0 -11 5 -20 10 -20 6 0 10 9 10 20 0 11 -4 20 -10 20 -5
0 -10 -9 -10 -20z"/>
</g>
</svg>
